<svg width="23" height="22" viewBox="0 0 23 22" fill="none" xmlns="http://www.w3.org/2000/svg">
<path d="M20.1882 0H18.0706V2.11765C18.0706 2.54118 17.7176 2.82353 17.3647 2.82353C17.0118 2.82353 16.6588 2.54118 16.6588 2.11765V0H5.36471V2.11765C5.36471 2.54118 5.01176 2.82353 4.65882 2.82353C4.30588 2.82353 3.95294 2.54118 3.95294 2.11765V0H1.83529C0.776471 0 0 0.917647 0 2.11765V4.65882H22.5882V2.11765C22.5882 0.917647 21.3176 0 20.1882 0ZM0 6.14118V19.0588C0 20.3294 0.776471 21.1765 1.90588 21.1765H20.2588C21.3882 21.1765 22.6588 20.2588 22.6588 19.0588V6.14118H0ZM6.28235 18H4.58824C4.30588 18 4.02353 17.7882 4.02353 17.4353V15.6706C4.02353 15.3882 4.23529 15.1059 4.58824 15.1059H6.35294C6.63529 15.1059 6.91765 15.3176 6.91765 15.6706V17.4353C6.84706 17.7882 6.63529 18 6.28235 18ZM6.28235 11.6471H4.58824C4.30588 11.6471 4.02353 11.4353 4.02353 11.0824V9.31765C4.02353 9.03529 4.23529 8.75294 4.58824 8.75294H6.35294C6.63529 8.75294 6.91765 8.96471 6.91765 9.31765V11.0824C6.84706 11.4353 6.63529 11.6471 6.28235 11.6471ZM11.9294 18H10.1647C9.88235 18 9.6 17.7882 9.6 17.4353V15.6706C9.6 15.3882 9.81176 15.1059 10.1647 15.1059H11.9294C12.2118 15.1059 12.4941 15.3176 12.4941 15.6706V17.4353C12.4941 17.7882 12.2824 18 11.9294 18ZM11.9294 11.6471H10.1647C9.88235 11.6471 9.6 11.4353 9.6 11.0824V9.31765C9.6 9.03529 9.81176 8.75294 10.1647 8.75294H11.9294C12.2118 8.75294 12.4941 8.96471 12.4941 9.31765V11.0824C12.4941 11.4353 12.2824 11.6471 11.9294 11.6471ZM17.5765 18H15.8118C15.5294 18 15.2471 17.7882 15.2471 17.4353V15.6706C15.2471 15.3882 15.4588 15.1059 15.8118 15.1059H17.5765C17.8588 15.1059 18.1412 15.3176 18.1412 15.6706V17.4353C18.1412 17.7882 17.9294 18 17.5765 18ZM17.5765 11.6471H15.8118C15.5294 11.6471 15.2471 11.4353 15.2471 11.0824V9.31765C15.2471 9.03529 15.4588 8.75294 15.8118 8.75294H17.5765C17.8588 8.75294 18.1412 8.96471 18.1412 9.31765V11.0824C18.1412 11.4353 17.9294 11.6471 17.5765 11.6471Z" fill="#5D9CE5"/>
</svg>
