<svg width="40" height="40" viewBox="0 0 40 40" fill="none" xmlns="http://www.w3.org/2000/svg">
<path d="M17.0967 15.7783L24.5167 20L17.0967 24.2217V15.78V15.7783Z" fill="#5D9CE5"/>
<path d="M20 0C8.955 0 0 8.955 0 20C0 31.045 8.955 40 20 40C31.045 40 40 31.045 40 20C40 8.955 31.045 0 20 0ZM33.6 26.8767C33.4396 27.4808 33.1233 28.0321 32.6828 28.4755C32.2423 28.919 31.693 29.2389 31.09 29.4033C28.8767 30 20 30 20 30C20 30 11.1233 30 8.91 29.4033C8.30691 29.239 7.75758 28.9192 7.31706 28.4757C6.87654 28.0323 6.56029 27.4808 6.4 26.8767C5.805 24.6483 5.805 20 5.805 20C5.805 20 5.805 15.3517 6.4 13.1233C6.56023 12.5193 6.87649 11.9681 7.31705 11.5249C7.7576 11.0817 8.30696 10.7622 8.91 10.5983C11.1233 10.0017 20 10.0017 20 10.0017C20 10.0017 28.8767 10.0017 31.09 10.5983C31.6929 10.7625 32.2421 11.0821 32.6826 11.5253C33.1231 11.9684 33.4395 12.5195 33.6 13.1233C34.1933 15.3517 34.1933 20 34.1933 20C34.1933 20 34.1933 24.6483 33.6 26.8767Z" fill="#5D9CE5"/>
</svg>
