<svg width="40" height="40" viewBox="0 0 40 40" fill="none" xmlns="http://www.w3.org/2000/svg">
<g clip-path="url(#clip0_97_373)">
<path d="M24.17 19.9768C24.17 20.5439 24.0583 21.1054 23.8413 21.6293C23.6243 22.1533 23.3062 22.6293 22.9052 23.0303C22.5042 23.4313 22.0281 23.7494 21.5042 23.9664C20.9803 24.1834 20.4188 24.2951 19.8517 24.2951C19.2846 24.2951 18.723 24.1834 18.1991 23.9664C17.6752 23.7494 17.1991 23.4313 16.7981 23.0303C16.3971 22.6293 16.0791 22.1533 15.862 21.6293C15.645 21.1054 15.5333 20.5439 15.5333 19.9768C15.5333 18.8315 15.9883 17.7331 16.7981 16.9233C17.608 16.1134 18.7064 15.6584 19.8517 15.6584C20.997 15.6584 22.0953 16.1134 22.9052 16.9233C23.715 17.7331 24.17 18.8315 24.17 19.9768Z" fill="#5D9CE5"/>
<path d="M20 0C8.955 0 0 8.955 0 20C0 31.045 8.955 40 20 40C31.045 40 40 31.045 40 20C40 8.955 31.045 0 20 0ZM32.7283 25.3167C32.6667 26.695 32.4467 27.6367 32.1267 28.46C31.8008 29.3244 31.2906 30.1076 30.6317 30.755C29.9849 31.4136 29.2023 31.9233 28.3383 32.2483C27.515 32.5683 26.5717 32.7867 25.1933 32.85C23.8117 32.9133 23.37 32.9283 19.8517 32.9283C16.3333 32.9283 15.8933 32.9133 14.5117 32.85C13.1333 32.7867 12.1917 32.5683 11.3667 32.2483C10.5025 31.9227 9.71944 31.4132 9.07167 30.755C8.41269 30.1076 7.90255 29.3244 7.57667 28.46C7.25667 27.6367 7.03833 26.695 6.975 25.3167C6.91167 23.935 6.89667 23.4933 6.89667 19.975C6.89667 16.4567 6.91167 16.0167 6.975 14.635C7.03833 13.2567 7.25667 12.315 7.57667 11.49C7.90833 10.6383 8.35167 9.91667 9.07167 9.19667C9.79167 8.47667 10.515 8.03333 11.3667 7.70167C12.19 7.38167 13.1333 7.16333 14.5117 7.1C15.8933 7.03667 16.335 7.02167 19.8517 7.02167C23.3683 7.02167 23.8117 7.03667 25.1933 7.1C26.5717 7.16167 27.5133 7.38167 28.3383 7.70167C29.19 8.03167 29.9117 8.47667 30.6317 9.19667C31.3517 9.91667 31.795 10.64 32.1267 11.49C32.4467 12.3133 32.665 13.2567 32.7283 14.635C32.7917 16.0167 32.8067 16.4567 32.8067 19.975C32.8067 23.4933 32.7917 23.9333 32.7283 25.3167ZM29.9517 12.3367C29.7444 11.7734 29.4128 11.2642 28.9817 10.8467C28.5637 10.416 28.0546 10.0846 27.4917 9.87667C27.035 9.7 26.35 9.48833 25.0867 9.43167C23.72 9.36833 23.31 9.35667 19.8517 9.35667C16.3933 9.35667 15.9833 9.37 14.6167 9.43167C13.355 9.48833 12.6683 9.7 12.2117 9.87667C11.6484 10.084 11.1392 10.4155 10.7217 10.8467C10.291 11.2646 9.95959 11.7738 9.75167 12.3367C9.575 12.7933 9.36333 13.4783 9.30667 14.7417C9.24333 16.1067 9.23167 16.5167 9.23167 19.9767C9.23167 23.4367 9.245 23.845 9.30667 25.2117C9.365 26.4733 9.575 27.16 9.75167 27.6167C9.98667 28.2217 10.2667 28.6533 10.7217 29.1067C11.175 29.56 11.6067 29.84 12.2117 30.075C12.6683 30.2533 13.3533 30.4633 14.6167 30.5217C15.9817 30.585 16.3917 30.5967 19.8517 30.5967C23.3117 30.5967 23.7217 30.5833 25.0867 30.5217C26.35 30.4633 27.035 30.2533 27.4917 30.075C28.0967 29.84 28.5283 29.56 28.9817 29.1067C29.435 28.6533 29.7167 28.2217 29.9517 27.6167C30.1283 27.16 30.34 26.475 30.3967 25.2117C30.46 23.845 30.4733 23.435 30.4733 19.9767C30.4733 16.5183 30.46 16.1083 30.3967 14.7417C30.3383 13.4783 30.1283 12.7933 29.9517 12.3367ZM19.8533 26.6267C18.9798 26.6267 18.1149 26.4546 17.3078 26.1203C16.5008 25.7861 15.7676 25.2961 15.1499 24.6784C14.5322 24.0608 14.0423 23.3275 13.708 22.5205C13.3737 21.7135 13.2017 20.8485 13.2017 19.975C13.2017 19.1015 13.3737 18.2365 13.708 17.4295C14.0423 16.6225 14.5322 15.8892 15.1499 15.2716C15.7676 14.6539 16.5008 14.1639 17.3078 13.8297C18.1149 13.4954 18.9798 13.3233 19.8533 13.3233C21.6175 13.3233 23.3093 14.0241 24.5568 15.2716C25.8042 16.519 26.505 18.2109 26.505 19.975C26.505 21.7391 25.8042 23.431 24.5568 24.6784C23.3093 25.9259 21.6175 26.6267 19.8533 26.6267ZM26.7683 14.615C26.56 14.6219 26.3523 14.5869 26.1578 14.512C25.9632 14.437 25.7857 14.3238 25.6358 14.1788C25.4859 14.0339 25.3667 13.8604 25.2852 13.6684C25.2038 13.4765 25.1617 13.2702 25.1616 13.0617C25.1615 12.8532 25.2033 12.6468 25.2846 12.4548C25.3658 12.2628 25.4849 12.0891 25.6346 11.944C25.7843 11.799 25.9617 11.6855 26.1562 11.6104C26.3507 11.5352 26.5583 11.5 26.7667 11.5067C27.1701 11.5197 27.5526 11.689 27.8334 11.9789C28.1143 12.2687 28.2714 12.6564 28.2716 13.06C28.2718 13.4636 28.1151 13.8515 27.8346 14.1417C27.5541 14.4318 27.1717 14.6016 26.7683 14.615Z" fill="#5D9CE5"/>
</g>
<defs>
<clipPath id="clip0_97_373">
<rect width="40" height="40" fill="white"/>
</clipPath>
</defs>
</svg>
