<svg width="40" height="40" viewBox="0 0 40 40" fill="none" xmlns="http://www.w3.org/2000/svg">
<g clip-path="url(#clip0_97_377)">
<path d="M20 0C8.955 0 0 8.955 0 20C0 31.0467 8.955 40 20 40C31.0467 40 40 31.0467 40 20C40 8.955 31.0467 0 20 0ZM29.1717 28.8467C29.0866 28.9866 28.9747 29.1083 28.8425 29.2049C28.7102 29.3015 28.5603 29.3711 28.4011 29.4096C28.2419 29.4482 28.0767 29.455 27.915 29.4296C27.7532 29.4042 27.598 29.3471 27.4583 29.2617C22.7617 26.3917 16.85 25.7433 9.88833 27.3333C9.72606 27.378 9.55642 27.3893 9.38965 27.3666C9.22289 27.3439 9.06244 27.2877 8.91798 27.2013C8.77353 27.115 8.64806 27.0002 8.54913 26.8641C8.4502 26.7279 8.37987 26.5731 8.34237 26.4091C8.30487 26.245 8.30098 26.075 8.33094 25.9094C8.36089 25.7438 8.42407 25.586 8.51667 25.4454C8.60927 25.3049 8.72936 25.1845 8.86972 25.0917C9.01007 24.9988 9.16778 24.9353 9.33333 24.905C16.9517 23.1633 23.4867 23.9133 28.7583 27.135C28.8982 27.2199 29.0199 27.3317 29.1165 27.4638C29.213 27.5959 29.2825 27.7458 29.3209 27.9049C29.3593 28.064 29.3659 28.229 29.3403 28.3907C29.3147 28.5523 29.2574 28.7073 29.1717 28.8467ZM31.62 23.4017C31.4032 23.7537 31.0557 24.0055 30.6536 24.1017C30.2515 24.198 29.8277 24.1308 29.475 23.915C24.1 20.6117 15.905 19.6533 9.545 21.585C9.14917 21.7044 8.72212 21.662 8.35751 21.4671C7.9929 21.2721 7.72049 20.9405 7.6 20.545C7.48056 20.1492 7.52298 19.7221 7.71794 19.3575C7.91289 18.9929 8.24449 18.7205 8.64 18.6C15.9033 16.395 24.9333 17.4633 31.1067 21.2567C31.84 21.7083 32.07 22.6683 31.62 23.4017ZM31.83 17.73C25.3833 13.9017 14.75 13.55 8.595 15.4183C8.12584 15.544 7.62622 15.4823 7.20168 15.2464C6.77714 15.0105 6.46094 14.6187 6.31987 14.154C6.1788 13.6892 6.22391 13.1879 6.44568 12.7558C6.66745 12.3237 7.0485 11.9947 7.50833 11.8383C14.5733 9.69333 26.3167 10.1083 33.7383 14.5133C34.1432 14.7767 34.4306 15.1864 34.5404 15.6568C34.6502 16.1272 34.5739 16.6218 34.3274 17.0372C34.081 17.4527 33.6835 17.7567 33.218 17.8858C32.7526 18.0149 32.2552 17.9591 31.83 17.73Z" fill="#5D9CE5"/>
</g>
<defs>
<clipPath id="clip0_97_377">
<rect width="40" height="40" fill="white"/>
</clipPath>
</defs>
</svg>
